<svg id="Dribbble-Light-Preview" xmlns="http://www.w3.org/2000/svg" width="20" height="20" viewBox="0 0 20 20">
  <g id="icons" transform="translate(-84 -7399)">
    <path id="github-_142_" data-name="github-[#142]" d="M94,7399a10.128,10.128,0,0,1,10,10.253,10.235,10.235,0,0,1-6.833,9.728c-.507.1-.687-.219-.687-.492,0-.338.012-1.442.012-2.814a2.481,2.481,0,0,0-.679-1.9c2.227-.254,4.567-1.121,4.567-5.059a4.011,4.011,0,0,0-1.03-2.752,3.763,3.763,0,0,0-.1-2.714s-.838-.275-2.747,1.051a9.254,9.254,0,0,0-5.008,0c-1.911-1.326-2.751-1.051-2.751-1.051a3.778,3.778,0,0,0-.1,2.714,4.025,4.025,0,0,0-1.03,2.752c0,3.928,2.335,4.808,4.556,5.067a2.2,2.2,0,0,0-.635,1.371,2.1,2.1,0,0,1-2.91-.852,2.109,2.109,0,0,0-1.533-1.057s-.975-.013-.068.623a2.7,2.7,0,0,1,1.11,1.5s.587,1.83,3.369,1.21c0,.857.014,1.665.014,1.909,0,.271-.184.588-.683.493A10.235,10.235,0,0,1,84,7409.253,10.129,10.129,0,0,1,94,7399" fill-rule="evenodd"/>
  </g>
</svg>
