<svg xmlns="http://www.w3.org/2000/svg" width="206.836" height="62.207" viewBox="0 0 206.836 62.207"><g transform="translate(-163 -135.735)"><path d="M187,162c6.2-5.74,4.97-11.2,5-18-3.18-12.16-23.7-7.01-29-8v61c6.52.06,26.94,1.37,30-16C193.75,172.96,194.71,166.73,187,162Zm-15-15.62a2.386,2.386,0,0,1,2.38-2.38h3.12c1.95,0,2.99,2.13,3.35,3.07a2.345,2.345,0,0,1,.15.83v5.6c0,2.41-2.57,4.17-6.17,4.77a2.4,2.4,0,0,1-2.83-2.34ZM182,180c0,2.32-2.39,4.04-3.47,4.7a2.071,2.071,0,0,1-1.08.3h-3.38a2.074,2.074,0,0,1-2.07-2.07V169.07a2.074,2.074,0,0,1,2.07-2.07H177a5.185,5.185,0,0,1,4.88,3.63,2.045,2.045,0,0,1,.12.69Z" fill="#e50914"/></g><path d="M199,194c.013-.683,26.014-1.716,26-2-.037-.759-.018-4.983-.006-6.968a1.027,1.027,0,0,0-1.03-1.032H210.853A1.853,1.853,0,0,1,209,182.147V169.029A1.029,1.029,0,0,1,210.029,168h10.942A1.029,1.029,0,0,0,222,166.971v-6.942A1.029,1.029,0,0,0,220.971,159H210.029A1.029,1.029,0,0,1,209,157.971V147.029A1.029,1.029,0,0,1,210.029,146h13.942A1.029,1.029,0,0,0,225,144.971v-5.942A1.029,1.029,0,0,0,223.971,138H200.029A1.029,1.029,0,0,0,199,139.029V194Z" transform="translate(-163 -135.735)" fill="#e50914"/><g transform="translate(-163 -135.735)" fill="#e50914" stroke-miterlimit="10"><path d="M 238.5930023193359 191.5 L 230.5970001220703 191.5 C 229.9921112060547 191.5 229.5 191.0078887939453 229.5 190.4029998779297 L 229.5 184.5970001220703 C 229.5 183.9921112060547 229.9921112060547 183.5 230.5970001220703 183.5 L 234 183.5 C 235.8010864257813 183.5 237.4293212890625 181.0644683837891 238.2395935058594 179.6126861572266 C 238.4102935791016 179.3039093017578 238.5 178.9539947509766 238.5 178.5989990234375 L 238.5 139.5970001220703 C 238.5 138.9921112060547 238.9921112060547 138.5 239.5970001220703 138.5 L 246.4029998779297 138.5 C 247.0078887939453 138.5 247.5 138.9921112060547 247.5 139.5970001220703 L 247.5 179.8739929199219 C 247.5 179.9392242431641 247.4960632324219 180.0018920898438 247.4883270263672 180.0602722167969 C 247.1078033447266 182.8805999755859 245.7867889404297 185.5046997070313 243.5621032714844 187.8585662841797 C 241.7561340332031 189.7694091796875 239.8592834472656 190.9448547363281 239.1275787353516 191.3615264892578 C 238.9657135009766 191.4532318115234 238.7855529785156 191.5 238.5930023193359 191.5 Z" stroke="none"/><path d="M 238.5930023193359 191 C 238.6995697021484 191 238.7940979003906 190.9757843017578 238.8801574707031 190.9270324707031 C 239.5923919677734 190.5214538574219 241.43896484375 189.3770751953125 243.19873046875 187.5151214599609 C 245.3500061035156 185.2389068603516 246.6265869140625 182.7078552246094 246.99267578125 179.9945373535156 C 246.9975280761719 179.9578552246094 247 179.9173126220703 247 179.8739929199219 L 247 139.5970001220703 C 247 139.2678070068359 246.7321929931641 139 246.4029998779297 139 L 239.5970001220703 139 C 239.2678070068359 139 239 139.2678070068359 239 139.5970001220703 L 239 178.5989990234375 C 239 179.0383911132813 238.8887023925781 179.4719543457031 238.6761932373047 179.8563537597656 C 238.3909301757813 180.3674774169922 237.8016357421875 181.3528747558594 237.0600128173828 182.2097778320313 C 236.0319366455078 183.3976745605469 235.0023956298828 184 234 184 L 230.5970001220703 184 C 230.2678070068359 184 230 184.2678070068359 230 184.5970001220703 L 230 190.4029998779297 C 230 190.7321929931641 230.2678070068359 191 230.5970001220703 191 L 238.5930023193359 191 M 238.5930023193359 192 L 230.5970001220703 192 C 229.7149963378906 192 229 191.2850036621094 229 190.4029998779297 L 229 184.5970001220703 C 229 183.7149963378906 229.7149963378906 183 230.5970001220703 183 L 234 183 C 235.625 183 237.2510070800781 180.3580017089844 237.8029937744141 179.3690032958984 C 237.9340057373047 179.1320037841797 238 178.8690032958984 238 178.5989990234375 L 238 139.5970001220703 C 238 138.7149963378906 238.7149963378906 138 239.5970001220703 138 L 246.4029998779297 138 C 247.2850036621094 138 248 138.7149963378906 248 139.5970001220703 L 248 179.8739929199219 C 248 179.9579925537109 247.9949951171875 180.0429992675781 247.9839935302734 180.1260070800781 C 247.0559997558594 187.0039978027344 240.9589996337891 190.8939971923828 239.375 191.7960052490234 C 239.1349945068359 191.9320068359375 238.8690032958984 192 238.5930023193359 192 Z" stroke="none" fill="#e50914"/></g><path d="M256.176,190.5h6.648a1.677,1.677,0,0,0,1.676-1.676V169.176a1.677,1.677,0,0,1,1.676-1.676h8.648a1.677,1.677,0,0,0,1.676-1.676v-3.648a1.677,1.677,0,0,0-1.676-1.676h-8.648a1.677,1.677,0,0,1-1.676-1.676V147.176a1.677,1.677,0,0,1,1.676-1.676h11.648a1.677,1.677,0,0,0,1.676-1.676v-4.648a1.677,1.677,0,0,0-1.676-1.676H256.176a1.677,1.677,0,0,0-1.676,1.676v49.648A1.677,1.677,0,0,0,256.176,190.5Z" transform="translate(-163 -135.735)" fill="#e50914" stroke="#e50914" stroke-miterlimit="10" stroke-width="1"/><g transform="translate(-163 -135.735)" fill="#e50914" stroke-miterlimit="10"><path d="M 309.7542114257813 191.4116973876953 C 309.754150390625 191.4116973876953 309.7541198730469 191.4116973876953 309.7540588378906 191.4116973876953 C 309.7312622070313 191.4116973876953 309.7081909179688 191.4112548828125 309.6852111816406 191.4103698730469 L 297.4271850585938 190.9393615722656 L 288.1812438964844 190.5833587646484 C 287.2384033203125 190.5474395751953 286.5 189.7803497314453 286.5 188.8370056152344 L 286.5 139.2480010986328 C 286.5 138.2841491699219 287.2841491699219 137.5 288.2479858398438 137.5 L 293.7520141601563 137.5 C 294.7158508300781 137.5 295.5 138.2841491699219 295.5 139.2480010986328 L 295.5 179.8880004882813 C 295.5 181.3359069824219 296.6318664550781 182.5407867431641 298.0768432617188 182.6310272216797 L 309.86083984375 183.3670196533203 C 310.7799987792969 183.4244232177734 311.5 184.19091796875 311.5 185.1119995117188 L 311.5 189.6640014648438 C 311.5 190.1315307617188 311.3177490234375 190.5708465576172 310.98681640625 190.9010162353516 C 310.65673828125 191.2303314208984 310.218994140625 191.4116973876953 309.7542114257813 191.4116973876953 Z" stroke="none"/><path d="M 309.7542114257813 190.9116973876953 C 310.4411315917969 190.9116973876953 311 190.3519897460938 311 189.6640014648438 L 311 185.1119995117188 C 311 184.4543151855469 310.4859313964844 183.9070281982422 309.8296508789063 183.8660583496094 L 298.0456848144531 183.1300659179688 C 296.3378295898438 183.0234069824219 295 181.5993194580078 295 179.8880004882813 L 295 139.2480010986328 C 295 138.5598449707031 294.4401550292969 138 293.7520141601563 138 L 288.2479858398438 138 C 287.5598449707031 138 287 138.5598449707031 287 139.2480010986328 L 287 188.8370056152344 C 287 189.5104522705078 287.5271301269531 190.0580749511719 288.2004699707031 190.0837249755859 L 297.4463806152344 190.4397277832031 L 309.7044067382813 190.9107360839844 C 309.7209777832031 190.911376953125 309.7375793457031 190.9116973876953 309.7539978027344 190.9116973876953 L 309.7542114257813 190.9116973876953 M 309.7539978027344 191.9116973876953 C 309.724853515625 191.9116973876953 309.6953735351563 191.9111328125 309.6659851074219 191.9100036621094 L 297.4079895019531 191.4389953613281 L 288.1619873046875 191.0829925537109 C 286.9549865722656 191.0370025634766 286 190.0449981689453 286 188.8370056152344 L 286 139.2480010986328 C 286 138.0059967041016 287.0060119628906 137 288.2479858398438 137 L 293.7520141601563 137 C 294.9939880371094 137 296 138.0059967041016 296 139.2480010986328 L 296 179.8880004882813 C 296 181.0749969482422 296.9230041503906 182.0579986572266 298.1080017089844 182.1320037841797 L 309.8919982910156 182.8679962158203 C 311.0769958496094 182.9420013427734 312 183.9250030517578 312 185.1119995117188 L 312 189.6640014648438 C 312 190.9095764160156 310.988525390625 191.9118041992188 309.7539978027344 191.9116973876953 Z" stroke="none" fill="#e50914"/></g><path d="M320.311,191.681l5.978.6a2.011,2.011,0,0,0,2.211-2V138.511a2.011,2.011,0,0,0-2.011-2.011h-5.978a2.011,2.011,0,0,0-2.011,2.011V189.68A2.011,2.011,0,0,0,320.311,191.681Z" transform="translate(-163 -135.735)" fill="#e50914" stroke="#e50914" stroke-miterlimit="10" stroke-width="1"/><path d="M335.5,192.5h8.707a.4.4,0,0,0,.382-.279l5.751-18.076a1.2,1.2,0,0,1,2.285.011l6.8,22.089a.4.4,0,0,0,.343.282l9.125.912a.4.4,0,0,0,.421-.522l-10.766-33.278a.406.406,0,0,1,.01-.275l10.72-26.312a.4.4,0,0,0-.371-.552h-9.13a.4.4,0,0,0-.373.256l-6.5,16.708a.4.4,0,0,1-.754-.018l-5.558-16.672a.4.4,0,0,0-.38-.274H336.084a.4.4,0,0,0-.374.545l9.736,25.314a.4.4,0,0,1,0,.282L334.5,192.5Z" transform="translate(-163 -135.735)" fill="#e50914" stroke="#e50914" stroke-miterlimit="10" stroke-width="1"/></svg>