<svg xmlns="http://www.w3.org/2000/svg" xmlns:xlink="http://www.w3.org/1999/xlink" width="822.414" height="234.196" viewBox="0 0 822.414 234.196">
  <defs>
    <filter id="Path_26" x="0" y="5.5" width="115.876" height="222.986" filterUnits="userSpaceOnUse">
      <feOffset dy="5" input="SourceAlpha"/>
      <feGaussianBlur stdDeviation="3" result="blur"/>
      <feFlood/>
      <feComposite operator="in" in2="blur"/>
      <feComposite in="SourceGraphic"/>
    </filter>
    <filter id="Path_27" x="136.563" y="5.5" width="104.796" height="212.941" filterUnits="userSpaceOnUse">
      <feOffset dy="5" input="SourceAlpha"/>
      <feGaussianBlur stdDeviation="3" result="blur-2"/>
      <feFlood/>
      <feComposite operator="in" in2="blur-2"/>
      <feComposite in="SourceGraphic"/>
    </filter>
    <filter id="Path_28" x="269.031" y="0.5" width="83.777" height="212.941" filterUnits="userSpaceOnUse">
      <feOffset dy="5" input="SourceAlpha"/>
      <feGaussianBlur stdDeviation="3" result="blur-3"/>
      <feFlood/>
      <feComposite operator="in" in2="blur-3"/>
      <feComposite in="SourceGraphic"/>
    </filter>
    <filter id="Path_29" x="372.218" y="0" width="104.674" height="213.442" filterUnits="userSpaceOnUse">
      <feOffset dy="5" input="SourceAlpha"/>
      <feGaussianBlur stdDeviation="3" result="blur-4"/>
      <feFlood/>
      <feComposite operator="in" in2="blur-4"/>
      <feComposite in="SourceGraphic"/>
    </filter>
    <filter id="Path_30" x="490.818" y="2.5" width="105.503" height="210.853" filterUnits="userSpaceOnUse">
      <feOffset dy="5" input="SourceAlpha"/>
      <feGaussianBlur stdDeviation="3" result="blur-5"/>
      <feFlood/>
      <feComposite operator="in" in2="blur-5"/>
      <feComposite in="SourceGraphic"/>
    </filter>
    <filter id="Path_31" x="615.821" y="9.138" width="51.557" height="208.308" filterUnits="userSpaceOnUse">
      <feOffset dy="5" input="SourceAlpha"/>
      <feGaussianBlur stdDeviation="3" result="blur-6"/>
      <feFlood/>
      <feComposite operator="in" in2="blur-6"/>
      <feComposite in="SourceGraphic"/>
    </filter>
    <filter id="Path_32" x="687.003" y="10" width="135.411" height="224.196" filterUnits="userSpaceOnUse">
      <feOffset dy="5" input="SourceAlpha"/>
      <feGaussianBlur stdDeviation="3" result="blur-7"/>
      <feFlood/>
      <feComposite operator="in" in2="blur-7"/>
      <feComposite in="SourceGraphic"/>
    </filter>
  </defs>
  <g id="Component_8_1" data-name="Component 8 – 1" transform="translate(9 4.5)">
    <g transform="matrix(1, 0, 0, 1, -9, -4.5)" filter="url(#Path_26)">
      <path id="Path_26-2" data-name="Path 26" d="M240.033,223.551c19.9-19.192,15.952-37.447,16.048-60.183C245.874,122.711,180.011,139.93,163,136.62V340.573c20.927.2,86.469,4.581,96.291-53.5C261.7,260.2,264.779,239.366,240.033,223.551Zm-48.145-52.225a7.822,7.822,0,0,1,7.639-7.958h10.014c6.259,0,9.6,7.122,10.753,10.265a8.132,8.132,0,0,1,.481,2.775v18.724c0,8.058-8.249,13.942-19.8,15.949a7.788,7.788,0,0,1-9.083-7.824Zm32.1,112.408c0,7.757-7.671,13.508-11.138,15.714a6.448,6.448,0,0,1-3.466,1H198.531a6.8,6.8,0,0,1-6.644-6.921V247.19a6.8,6.8,0,0,1,6.644-6.921h9.4c10.432,0,14.508,8.827,15.663,12.137a7.1,7.1,0,0,1,.385,2.307Z" transform="translate(-154 -126.24)" fill="#e50914"/>
    </g>
    <g transform="matrix(1, 0, 0, 1, -9, -4.5)" filter="url(#Path_27)">
      <path id="Path_27-2" data-name="Path 27" d="M199,332.941c.043-2.378,86.843-5.974,86.8-6.962-.124-2.642-.06-17.346-.02-24.256a3.5,3.5,0,0,0-3.438-3.592H238.569a6.324,6.324,0,0,1-6.186-6.451V246.015a3.512,3.512,0,0,1,3.435-3.582h36.528a3.512,3.512,0,0,0,3.435-3.582V214.685a3.512,3.512,0,0,0-3.435-3.582H235.818a3.512,3.512,0,0,1-3.435-3.582v-38.09a3.512,3.512,0,0,1,3.435-3.582h46.543a3.512,3.512,0,0,0,3.435-3.582V141.582A3.512,3.512,0,0,0,282.361,138H202.435A3.512,3.512,0,0,0,199,141.582V332.941Z" transform="translate(-53.44 -128.5)" fill="#e50914"/>
    </g>
    <g transform="matrix(1, 0, 0, 1, -9, -4.5)" filter="url(#Path_28)">
      <g id="Path_28-2" data-name="Path 28" transform="translate(49.03 -133.5)" fill="#e50914" stroke-miterlimit="10">
        <path d="M 262.2105712890625 332.44140625 L 234.5287322998047 332.44140625 C 231.7558898925781 332.44140625 229.4999847412109 330.0794677734375 229.4999847412109 327.1762084960938 L 229.4999847412109 306.2164306640625 C 229.4999847412109 303.3131713867188 231.7558898925781 300.9512329101563 234.5287322998047 300.9512329101563 L 246.309814453125 300.9512329101563 C 252.1309051513672 300.9512329101563 257.7644958496094 291.5997314453125 259.9164123535156 287.5791625976563 C 260.4016723632813 286.663818359375 260.6576538085938 285.6216430664063 260.6576538085938 284.5634765625 L 260.6576538085938 143.7651824951172 C 260.6576538085938 140.8619537353516 262.91357421875 138.5000305175781 265.6864013671875 138.5000305175781 L 289.2484741210938 138.5000305175781 C 292.0213317871094 138.5000305175781 294.2772216796875 140.8619537353516 294.2772216796875 143.7651824951172 L 294.2772216796875 289.166259765625 C 294.2772216796875 289.4591674804688 294.2599182128906 289.744140625 294.225830078125 290.0132141113281 C 293.491943359375 295.6849670410156 291.7460021972656 301.2141723632813 289.0367126464844 306.4458923339844 C 286.7835998535156 310.7967224121094 283.844482421875 314.9851379394531 280.3009643554688 318.894775390625 C 273.9344177246094 325.9191589355469 267.24365234375 330.242431640625 264.6625366210938 331.7751159667969 C 263.9145812988281 332.217041015625 263.0893249511719 332.44140625 262.2105712890625 332.44140625 Z" stroke="none"/>
        <path d="M 262.2105712890625 331.94140625 C 262.9986267089844 331.94140625 263.7383422851563 331.7404479980469 264.4072570800781 331.3451843261719 C 266.9689331054688 329.8240356445313 273.6095275878906 325.5331115722656 279.9304809570313 318.5589904785156 C 283.445068359375 314.6813049316406 286.3594665527344 310.5285034179688 288.5927429199219 306.2159729003906 C 291.2751159667969 301.0361938476563 293.0035705566406 295.5627746582031 293.7297973632813 289.9504089355469 C 293.7612609863281 289.701904296875 293.7772216796875 289.4381103515625 293.7772216796875 289.166259765625 L 293.7772216796875 143.7651824951172 C 293.7772216796875 141.1376495361328 291.7456359863281 139.0000152587891 289.2484741210938 139.0000152587891 L 265.6864013671875 139.0000152587891 C 263.1892395019531 139.0000152587891 261.1576538085938 141.1376495361328 261.1576538085938 143.7651824951172 L 261.1576538085938 284.5634765625 C 261.1576538085938 285.7029724121094 260.8815307617188 286.826171875 260.3572387695313 287.8150939941406 C 259.4164733886719 289.5728149414063 257.4766845703125 292.9571838378906 255.0552215576172 295.874755859375 C 251.984130859375 299.5750427246094 249.0417633056641 301.4512329101563 246.3097991943359 301.4512329101563 L 234.5287475585938 301.4512329101563 C 232.0315856933594 301.4512329101563 229.9999847412109 303.5888977050781 229.9999847412109 306.2164306640625 L 229.9999847412109 327.1762084960938 C 229.9999847412109 329.8037414550781 232.0315856933594 331.94140625 234.5287475585938 331.94140625 L 262.2105712890625 331.94140625 M 262.2105712890625 332.94140625 L 234.5287475585938 332.94140625 C 231.4752349853516 332.94140625 228.9999847412109 330.3602294921875 228.9999847412109 327.1762084960938 L 228.9999847412109 306.2164306640625 C 228.9999847412109 303.0323486328125 231.4752349853516 300.4512329101563 234.5287475585938 300.4512329101563 L 246.3097991943359 300.4512329101563 C 251.9354858398438 300.4512329101563 257.5646362304688 290.91357421875 259.4755859375 287.3432006835938 C 259.9291381835938 286.4876708984375 260.1576538085938 285.5382080078125 260.1576538085938 284.5634765625 L 260.1576538085938 143.7651824951172 C 260.1576538085938 140.5811309814453 262.6328735351563 138.0000152587891 265.6864013671875 138.0000152587891 L 289.2484741210938 138.0000152587891 C 292.3018798828125 138.0000152587891 294.7772216796875 140.5811309814453 294.7772216796875 143.7651824951172 L 294.7772216796875 289.166259765625 C 294.7772216796875 289.469482421875 294.7598266601563 289.7763671875 294.7218627929688 290.0760498046875 C 291.509033203125 314.90576171875 270.4015502929688 328.94873046875 264.9178466796875 332.2050170898438 C 264.0869140625 332.6959838867188 263.1660766601563 332.94140625 262.2105712890625 332.94140625 Z" stroke="none" fill="#e50914"/>
      </g>
    </g>
    <g transform="matrix(1, 0, 0, 1, -9, -4.5)" filter="url(#Path_29)">
      <path id="Path_29-2" data-name="Path 29" d="M260.244,331.942h22.782a5.96,5.96,0,0,0,5.744-6.149V253.71a5.959,5.959,0,0,1,5.744-6.149h29.636a5.959,5.959,0,0,0,5.744-6.149V228.029a5.959,5.959,0,0,0-5.744-6.149H294.513a5.959,5.959,0,0,1-5.744-6.149V173a5.959,5.959,0,0,1,5.744-6.149H334.43a5.96,5.96,0,0,0,5.744-6.149V143.649a5.959,5.959,0,0,0-5.744-6.149H260.244a5.959,5.959,0,0,0-5.744,6.149V325.793A5.96,5.96,0,0,0,260.244,331.942Z" transform="translate(127.22 -133)" fill="#e50914" stroke="#e50914" stroke-miterlimit="10" stroke-width="1"/>
    </g>
    <g transform="matrix(1, 0, 0, 1, -9, -4.5)" filter="url(#Path_30)">
      <g id="Path_30-2" data-name="Path 30" transform="translate(213.82 -130.5)" fill="#e50914" stroke-miterlimit="10">
        <path d="M 365.9446105957031 329.3531799316406 C 365.9443969726563 329.3531799316406 365.9443359375 329.3531799316406 365.944091796875 329.3531799316406 C 365.8523864746094 329.3531799316406 365.7594604492188 329.351318359375 365.6679382324219 329.34765625 L 324.4136962890625 327.6934204101563 L 293.2963256835938 326.4431762695313 C 291.4649658203125 326.370361328125 289.7554016113281 325.5702209472656 288.4822998046875 324.1900939941406 C 287.2040100097656 322.8043212890625 286.5 320.9805297851563 286.5 319.0546569824219 L 286.5 144.8950653076172 C 286.5 140.8173980712891 289.6696472167969 137.5 293.565673828125 137.5 L 312.0894775390625 137.5 C 315.9854431152344 137.5 319.155029296875 140.8173980712891 319.155029296875 144.8950653076172 L 319.155029296875 287.6252136230469 C 319.155029296875 292.0479431152344 322.4766235351563 295.7289123535156 326.7169189453125 296.0052490234375 L 366.3760375976563 298.5900573730469 C 370.0921325683594 298.832275390625 373.0030517578125 302.0749206542969 373.0030517578125 305.9722290039063 L 373.0030517578125 321.9591369628906 C 373.0030517578125 323.9411926269531 372.2636413574219 325.8025817871094 370.9210205078125 327.2003784179688 C 369.5876159667969 328.588623046875 367.8201904296875 329.3531799316406 365.9446105957031 329.3531799316406 Z" stroke="none"/>
        <path d="M 365.9447631835938 328.8531799316406 C 369.56103515625 328.8531799316406 372.5030517578125 325.760498046875 372.5030517578125 321.9591369628906 L 372.5030517578125 305.9722290039063 C 372.5030517578125 302.3375854492188 369.7974853515625 299.3141479492188 366.3435668945313 299.0890197753906 L 326.6844177246094 296.5042114257813 C 322.1819458007813 296.2107543945313 318.655029296875 292.3106384277344 318.655029296875 287.6252136230469 L 318.655029296875 144.8950958251953 C 318.655029296875 141.0931396484375 315.7097473144531 138.0000152587891 312.0894775390625 138.0000152587891 L 293.565673828125 138.0000152587891 C 289.9453430175781 138.0000152587891 287 141.0931396484375 287 144.8950958251953 L 287 319.0546569824219 C 287 320.8545532226563 287.6569519042969 322.5579223632813 288.8498229980469 323.8511047363281 C 290.0322875976563 325.1329345703125 291.618408203125 325.8760375976563 293.31640625 325.9435729980469 L 324.4337463378906 327.19384765625 L 365.6880187988281 328.8480529785156 C 365.7729797363281 328.8514404296875 365.8591003417969 328.8531799316406 365.9444580078125 328.8531799316406 L 365.9447631835938 328.8531799316406 M 365.9441223144531 329.8531799316406 C 365.8459777832031 329.8531494140625 365.746826171875 329.8511962890625 365.6478881835938 329.8472290039063 L 324.3936767578125 328.1930236816406 L 293.2762451171875 326.9427490234375 C 289.2140502929688 326.78125 286 323.2972412109375 286 319.0546569824219 L 286 144.8950958251953 C 286 140.5331115722656 289.3858032226563 137.0000152587891 293.565673828125 137.0000152587891 L 312.0894775390625 137.0000152587891 C 316.2693481445313 137.0000152587891 319.655029296875 140.5331115722656 319.655029296875 144.8950958251953 L 319.655029296875 287.6252136230469 C 319.655029296875 291.7940673828125 322.7614135742188 295.2463989257813 326.7494506835938 295.5063171386719 L 366.4085693359375 298.0911254882813 C 370.3966674804688 298.35107421875 373.5030517578125 301.8034057617188 373.5030517578125 305.9722290039063 L 373.5030517578125 321.9591369628906 C 373.5030517578125 326.3337097167969 370.0989379882813 329.853515625 365.9441223144531 329.8531799316406 Z" stroke="none" fill="#e50914"/>
      </g>
    </g>
    <g transform="matrix(1, 0, 0, 1, -9, -4.5)" filter="url(#Path_31)">
      <path id="Path_31-2" data-name="Path 31" d="M324.4,323.74l19.463,2.029a6.657,6.657,0,0,0,7.2-6.79V143.324a6.688,6.688,0,0,0-6.547-6.824H325.047a6.688,6.688,0,0,0-6.547,6.824V316.95A6.725,6.725,0,0,0,324.4,323.74Z" transform="translate(306.82 -122.86)" fill="#e50914" stroke="#e50914" stroke-miterlimit="10" stroke-width="1"/>
    </g>
    <g transform="matrix(1, 0, 0, 1, -9, -4.5)" filter="url(#Path_32)">
      <path id="Path_32-2" data-name="Path 32" d="M337.836,325.057H366.88a1.341,1.341,0,0,0,1.274-.939l19.184-60.863a3.983,3.983,0,0,1,7.622.037l22.673,74.375a1.34,1.34,0,0,0,1.144.949l30.439,3.071a1.344,1.344,0,0,0,1.4-1.758l-35.913-112.05a1.38,1.38,0,0,1,.033-.926L450.5,138.359a1.35,1.35,0,0,0-1.238-1.859H418.808a1.338,1.338,0,0,0-1.244.862l-21.676,56.257a1.333,1.333,0,0,1-2.515-.061l-18.54-56.136a1.332,1.332,0,0,0-1.268-.923H339.784a1.347,1.347,0,0,0-1.248,1.835l32.477,85.234a1.349,1.349,0,0,1,.007.95L334.5,325.057Z" transform="translate(362.22 -122)" fill="#e50914" stroke="#e50914" stroke-miterlimit="10" stroke-width="1"/>
    </g>
  </g>
</svg>
