<svg id="Layer_2" data-name="Layer 2" xmlns="http://www.w3.org/2000/svg" width="89.606" height="77.171" viewBox="0 0 89.606 77.171">
  <path id="Path_20" data-name="Path 20" d="M16.337,41.745a3.167,3.167,0,0,1-3.167-3.167V18.609a3.167,3.167,0,0,1,4.878-2.653L33.567,25.969a3.167,3.167,0,0,1,0,5.306L18.048,41.26A3.2,3.2,0,0,1,16.337,41.745Zm2.539-18.486V33.929l8.273-5.335Z" transform="translate(23.739 22.3)" fill="#e5e5e5"/>
  <path id="Path_21" data-name="Path 21" d="M81.2,65.349H10.409A9.46,9.46,0,0,1,1,55.838V11H90.606V55.838A9.46,9.46,0,0,1,81.2,65.349ZM6.974,17.039v38.8a3.454,3.454,0,0,0,3.435,3.472H81.2a3.454,3.454,0,0,0,3.435-3.472v-38.8Z" transform="translate(-1 11.822)" fill="#e5e5e5"/>
  <path id="Path_22" data-name="Path 22" d="M90.606,31.527H1V11.986A9.2,9.2,0,0,1,10.409,3H81.2a9.2,9.2,0,0,1,9.409,8.986ZM6.974,25.822H84.632V11.986A3.36,3.36,0,0,0,81.2,8.705H10.409a3.36,3.36,0,0,0-3.435,3.281Z" transform="translate(-1 -3)" fill="#e5e5e5"/>
  <path id="Path_23" data-name="Path 23" d="M19.236,28.939,14.13,26.372l5.078-10.127L14.13,6.117,19.236,3.55l6.333,12.695Z" transform="translate(25.359 -1.981)" fill="#e5e5e5"/>
  <path id="Path_24" data-name="Path 24" d="M11.016,28.939,5.91,26.372l5.078-10.127L5.91,6.117,11.016,3.55l6.333,12.695Z" transform="translate(8.857 -1.981)" fill="#e5e5e5"/>
  <path id="Path_25" data-name="Path 25" d="M27.236,28.939,22.13,26.372l5.078-10.127L22.13,6.117,27.236,3.55l6.333,12.695Z" transform="translate(41.42 -1.981)" fill="#e5e5e5"/>
</svg>
