<svg xmlns="http://www.w3.org/2000/svg" width="108.302" height="74.945" viewBox="0 0 108.302 74.945">
  <g id="Component_10_1" data-name="Component 10 – 1" transform="translate(0.5 0.5)">
    <path id="Path_13" data-name="Path 13" d="M43.09,43.357H23.182a1.782,1.782,0,1,1,0-3.564H43.09a1.782,1.782,0,1,1,0,3.564Z" transform="translate(13.36 11.063)" fill="#e5e5e5" stroke="#e5e5e5" stroke-width="1"/>
    <path id="Path_14" data-name="Path 14" d="M61.439,75.107H39.7a7.128,7.128,0,0,1-7.128-7.128V25.071A7.128,7.128,0,0,1,39.7,17.943h6.073a1.782,1.782,0,1,1,0,3.564H39.7a3.564,3.564,0,0,0-3.564,3.564V67.979A3.564,3.564,0,0,0,39.7,71.543H61.439a1.782,1.782,0,0,1,0,3.564Zm16.2-34.177a1.782,1.782,0,0,1-1.782-1.782V25.071a3.564,3.564,0,0,0-3.564-3.564h-19.9a1.782,1.782,0,0,1,0-3.564h19.9a7.128,7.128,0,0,1,7.128,7.128V39.148A1.782,1.782,0,0,1,77.637,40.93Z" transform="translate(22.096 -6.022)" fill="#e5e5e5" stroke="#e5e5e5" stroke-width="1"/>
    <path id="Path_15" data-name="Path 15" d="M86.92,71.438h-12.9a6.235,6.235,0,0,1-1.351-.146,1.782,1.782,0,0,1,.763-3.48,2.827,2.827,0,0,0,.588.062h12.9a2.764,2.764,0,0,0,2.762-2.762V35.158a2.757,2.757,0,0,0-2.762-2.744h-12.9a2.757,2.757,0,0,0-2.762,2.744V64.791a1.782,1.782,0,1,1-3.564,0V35.158a6.324,6.324,0,0,1,6.326-6.308h12.9a6.324,6.324,0,0,1,6.326,6.308V65.112a6.331,6.331,0,0,1-6.326,6.326ZM62.259,61.477A1.781,1.781,0,0,1,60.6,59.018a1.7,1.7,0,0,1,.392-.588,1.843,1.843,0,0,1,2.513,0,1.486,1.486,0,0,1,.392.588,1.782,1.782,0,0,1-1.639,2.459ZM24.072,46.349a1.757,1.757,0,0,1-.677-.125,1.782,1.782,0,0,1-1.1-1.639,1.864,1.864,0,0,1,.143-.695,1.761,1.761,0,0,1,.374-.57,2.12,2.12,0,0,1,.588-.392,1.819,1.819,0,0,1,1.942.392,2.159,2.159,0,0,1,.392.57,1.846,1.846,0,0,1,.125.695,1.723,1.723,0,0,1-.517,1.247,1.764,1.764,0,0,1-1.265.517Z" transform="translate(14.056 2.507)" fill="#e5e5e5" stroke="#e5e5e5" stroke-width="1"/>
    <path id="Path_16" data-name="Path 16" d="M96.415,48.28A1.782,1.782,0,0,1,94.633,46.5V44.384a1.782,1.782,0,0,1,3.564,0V46.5A1.782,1.782,0,0,1,96.415,48.28Zm-64.3,17.393H7.239a5.346,5.346,0,0,1-5.346-5.346V16.6a5.346,5.346,0,0,1,5.346-5.346H72.814A5.346,5.346,0,0,1,78.159,16.6v8.357a1.782,1.782,0,1,1-3.564,0V16.6a1.782,1.782,0,0,0-1.782-1.782H7.239A1.782,1.782,0,0,0,5.457,16.6V60.327a1.782,1.782,0,0,0,1.782,1.782H32.114a1.782,1.782,0,0,1,0,3.564Z" transform="translate(-1.893 -11.253)" fill="#e5e5e5" stroke="#e5e5e5" stroke-width="1"/>
    <path id="Path_17" data-name="Path 17" d="M17.913,56.519a1.782,1.782,0,0,1-1.5-2.739C18.968,49.764,19.2,41.619,19.2,41.537A1.851,1.851,0,0,1,21.022,39.8a1.782,1.782,0,0,1,1.739,1.823c-.009.374-.253,9.216-3.343,14.077a1.782,1.782,0,0,1-1.506.82Zm21.955,0a1.782,1.782,0,0,1-1.506-.825c-3.09-4.856-3.334-13.7-3.343-14.077a1.782,1.782,0,0,1,1.739-1.823H36.8a1.782,1.782,0,0,1,1.782,1.739c0,.082.232,8.227,2.787,12.244a1.782,1.782,0,0,1-1.5,2.739Z" transform="translate(9.242 11.064)" fill="#e5e5e5" stroke="#e5e5e5" stroke-width="1"/>
    <path id="Path_18" data-name="Path 18" d="M44.146,50.744h-27.9a1.782,1.782,0,1,1,0-3.564h27.9a1.782,1.782,0,1,1,0,3.564Z" transform="translate(7.937 16.839)" fill="#e5e5e5" stroke="#e5e5e5" stroke-width="1"/>
  </g>
</svg>
