<svg xmlns="http://www.w3.org/2000/svg" width="84.929" height="81.314" viewBox="0 0 84.929 81.314">
  <g id="Component_9_1" data-name="Component 9 – 1" transform="translate(0.551 0.5)">
    <path id="Path_19" data-name="Path 19" d="M83.59,31.671A5.256,5.256,0,0,0,79.357,28.1L56.75,24.815,46.637,4.333a5.245,5.245,0,0,0-9.41,0L27.12,24.815,4.513,28.1a5.243,5.243,0,0,0-2.906,8.948l16.36,15.945L14.106,75.51a5.241,5.241,0,0,0,7.606,5.528l20.22-10.632,20.22,10.632a5.245,5.245,0,0,0,7.611-5.528L65.9,52.993l16.36-15.945A5.255,5.255,0,0,0,83.59,31.671ZM60.264,51.162,64.591,76.4,41.932,64.485,19.273,76.4,23.6,51.162,5.268,33.292,30.6,29.609,41.932,6.651l11.33,22.958L78.6,33.292,60.264,51.162Z" transform="translate(-0.018 -1.406)" fill="#e5e5e5" stroke="#e5e5e5" stroke-width="1"/>
  </g>
</svg>
